<svg xmlns="http://www.w3.org/2000/svg" viewBox="0 0 34.34 33.5"><defs><style>.cls-1{fill:#f60a20;}</style></defs><g id="Layer_2" data-name="Layer 2"><g id="Desktop"><path class="cls-1" d="M15.21.11a17.18,17.18,0,0,0-3.47,33.36c.86.15,1.18-.38,1.18-.83s0-1.76,0-3.2c-4.77,1-5.78-2-5.78-2A4.55,4.55,0,0,0,5.2,24.91c-1.56-1.07.12-1.05.12-1.05A3.61,3.61,0,0,1,8,25.63a3.65,3.65,0,0,0,5,1.43A3.6,3.6,0,0,1,14,24.77c-3.81-.44-7.82-1.91-7.82-8.49A6.67,6.67,0,0,1,8,11.67a6.26,6.26,0,0,1,.17-4.55s1.44-.46,4.73,1.76a16.47,16.47,0,0,1,8.59,0c3.28-2.22,4.72-1.76,4.72-1.76a6.14,6.14,0,0,1,.17,4.55,6.63,6.63,0,0,1,1.77,4.61c0,6.59-4,8-7.84,8.47a4.12,4.12,0,0,1,1.16,3.18c0,2.3,0,4.15,0,4.71s.31,1,1.18.83A17.18,17.18,0,0,0,15.21.11Z"/></g></g></svg>